<svg width="19" height="19" viewBox="0 0 19 19" fill="none" xmlns="http://www.w3.org/2000/svg">
<path fill-rule="evenodd" clip-rule="evenodd" d="M18.1343 9.46243C18.1343 8.80637 18.0754 8.17554 17.966 7.56995H9.2522V11.1488H14.2315C14.0171 12.3054 13.3652 13.2853 12.3853 13.9413V16.2628H15.3754C17.1249 14.652 18.1343 12.2801 18.1343 9.46243Z" fill="#4285F4"/>
<path fill-rule="evenodd" clip-rule="evenodd" d="M9.25195 18.5041C11.75 18.5041 13.8444 17.6756 15.3752 16.2626L12.3851 13.9411C11.5566 14.4963 10.4968 14.8243 9.25195 14.8243C6.84218 14.8243 4.8025 13.1968 4.07495 11.0099H0.983887V13.407C2.50629 16.4308 5.6352 18.5041 9.25195 18.5041Z" fill="#34A853"/>
<path fill-rule="evenodd" clip-rule="evenodd" d="M4.07515 11.0101C3.89011 10.455 3.78497 9.86203 3.78497 9.25222C3.78497 8.64242 3.89011 8.04944 4.07515 7.49432V5.09717H0.984093C0.357469 6.34621 0 7.75926 0 9.25222C0 10.7452 0.357469 12.1582 0.984093 13.4073L4.07515 11.0101Z" fill="#FBBC05"/>
<path fill-rule="evenodd" clip-rule="evenodd" d="M9.25195 3.67983C10.6103 3.67983 11.8299 4.14665 12.7888 5.06345L15.4425 2.40976C13.8402 0.916804 11.7458 0 9.25195 0C5.6352 0 2.50629 2.07332 0.983887 5.09709L4.07495 7.49424C4.8025 5.30737 6.84218 3.67983 9.25195 3.67983Z" fill="#EA4335"/>
</svg>
