<svg width="72" height="72" viewBox="0 0 72 72" fill="none" xmlns="http://www.w3.org/2000/svg">
<rect width="72" height="72" rx="10" fill="black"/>
<g filter="url(#filter0_i_0_1)">
<path d="M29.9531 45H47.6719C48.5156 43.9688 49.6406 43.4531 51.0469 43.4531C52.2656 43.4531 53.2969 43.9219 54.1406 44.8594C55.0781 45.7031 55.5469 46.7344 55.5469 47.9531C55.5469 49.2656 55.0781 50.3438 54.1406 51.1875C53.2969 52.0312 52.2656 52.4531 51.0469 52.4531C49.6406 52.4531 48.5156 51.9844 47.6719 51.0469H35.7188C35.25 53.2969 34.3125 55.3594 32.9062 57.2344C31.5 59.0156 29.7656 60.4219 27.7031 61.4531C25.6406 62.4844 23.3906 63 20.9531 63C18.2344 63 15.7031 62.3438 13.3594 61.0312C11.1094 59.625 9.32812 57.7969 8.01562 55.5469C6.70312 53.2969 6.04688 50.7656 6.04688 47.9531C6.04688 45.6094 6.5625 43.4062 7.59375 41.3438C8.625 39.2812 10.0312 37.5469 11.8125 36.1406C13.6875 34.7344 15.75 33.7969 18 33.3281V39.5156C16.2188 40.1719 14.7656 41.2969 13.6406 42.8906C12.5156 44.3906 11.9531 46.0781 11.9531 47.9531C11.9531 49.6406 12.375 51.1875 13.2188 52.5938C14.0625 53.9062 15.1406 54.9844 16.4531 55.8281C17.8594 56.5781 19.3594 56.9531 20.9531 56.9531C22.6406 56.9531 24.1406 56.5781 25.4531 55.8281C26.8594 54.9844 27.9375 53.9062 28.6875 52.5938C29.5312 51.1875 29.9531 49.6406 29.9531 47.9531V45ZM37.5469 11.9531C39.1406 11.9531 40.5938 12.375 41.9062 13.2188C43.3125 14.0625 44.4375 15.1875 45.2812 16.5938C46.125 17.9062 46.5469 19.3594 46.5469 20.9531H52.4531C52.4531 18.2344 51.7969 15.75 50.4844 13.5C49.1719 11.1562 47.3438 9.32812 45 8.01562C42.75 6.70313 40.2656 6.04688 37.5469 6.04688C34.7344 6.04688 32.2031 6.70313 29.9531 8.01562C27.7031 9.32812 25.875 11.1562 24.4688 13.5C23.1562 15.75 22.5 18.2344 22.5 20.9531C22.5 23.1094 22.9219 25.125 23.7656 27C24.6094 28.875 25.7344 30.5156 27.1406 31.9219L20.1094 43.5938C19.0781 43.7812 18.1875 44.2969 17.4375 45.1406C16.7812 45.9844 16.4531 46.9219 16.4531 47.9531C16.4531 49.2656 16.875 50.3438 17.7188 51.1875C18.6562 52.0312 19.7344 52.4531 20.9531 52.4531C22.2656 52.4531 23.3438 52.0312 24.1875 51.1875C25.0312 50.3438 25.4531 49.2656 25.4531 47.9531C25.4531 47.4844 25.4062 47.0625 25.3125 46.6875L35.4375 29.8125C33.4688 29.3438 31.8281 28.3125 30.5156 26.7188C29.2031 25.0312 28.5469 23.1094 28.5469 20.9531C28.5469 19.3594 28.9219 17.9062 29.6719 16.5938C30.5156 15.1875 31.5938 14.0625 32.9062 13.2188C34.3125 12.375 35.8594 11.9531 37.5469 11.9531ZM51.0469 38.9531C49.1719 38.9531 47.4375 39.5156 45.8438 40.6406L36.7031 25.4531C35.6719 25.2656 34.7812 24.75 34.0312 23.9062C33.375 23.0625 33.0469 22.0781 33.0469 20.9531C33.0469 19.7344 33.4688 18.7031 34.3125 17.8594C35.1562 16.9219 36.2344 16.4531 37.5469 16.4531C38.7656 16.4531 39.7969 16.9219 40.6406 17.8594C41.5781 18.7031 42.0469 19.7344 42.0469 20.9531C42.0469 21.4219 41.9531 21.8906 41.7656 22.3594L48.375 33.1875C49.3125 33.0938 50.2031 33.0469 51.0469 33.0469C53.7656 33.0469 56.25 33.7031 58.5 35.0156C60.8438 36.3281 62.6719 38.1562 63.9844 40.5C65.2969 42.75 65.9531 45.2344 65.9531 47.9531C65.9531 50.7656 65.2969 53.2969 63.9844 55.5469C62.6719 57.7969 60.8438 59.625 58.5 61.0312C56.25 62.3438 53.7656 63 51.0469 63C48.2344 63 45.6562 62.3438 43.3125 61.0312C41.0625 59.625 39.2812 57.7969 37.9688 55.5469H45.9844C47.4844 56.4844 49.1719 56.9531 51.0469 56.9531C52.6406 56.9531 54.0938 56.5781 55.4062 55.8281C56.8125 54.9844 57.9375 53.9062 58.7812 52.5938C59.625 51.1875 60.0469 49.6406 60.0469 47.9531C60.0469 46.3594 59.625 44.9062 58.7812 43.5938C57.9375 42.1875 56.8125 41.0625 55.4062 40.2188C54.0938 39.375 52.6406 38.9531 51.0469 38.9531Z" fill="white"/>
</g>
<defs>
<filter id="filter0_i_0_1" x="6.04688" y="6.04688" width="59.9062" height="60.9531" filterUnits="userSpaceOnUse" color-interpolation-filters="sRGB">
<feFlood flood-opacity="0" result="BackgroundImageFix"/>
<feBlend mode="normal" in="SourceGraphic" in2="BackgroundImageFix" result="shape"/>
<feColorMatrix in="SourceAlpha" type="matrix" values="0 0 0 0 0 0 0 0 0 0 0 0 0 0 0 0 0 0 127 0" result="hardAlpha"/>
<feOffset dy="4"/>
<feGaussianBlur stdDeviation="2"/>
<feComposite in2="hardAlpha" operator="arithmetic" k2="-1" k3="1"/>
<feColorMatrix type="matrix" values="0 0 0 0 0 0 0 0 0 0 0 0 0 0 0 0 0 0 0.5 0"/>
<feBlend mode="normal" in2="shape" result="effect1_innerShadow_0_1"/>
</filter>
</defs>
</svg>
