<svg width="190" height="41" viewBox="0 0 190 41" fill="none" xmlns="http://www.w3.org/2000/svg">
<path d="M14.1445 24.1671H22.5117C22.9102 23.6802 23.4414 23.4367 24.1055 23.4367C24.681 23.4367 25.168 23.658 25.5664 24.1007C26.0091 24.4992 26.2305 24.9862 26.2305 25.5617C26.2305 26.1815 26.0091 26.6906 25.5664 27.089C25.168 27.4875 24.681 27.6867 24.1055 27.6867C23.4414 27.6867 22.9102 27.4653 22.5117 27.0226H16.8672C16.6458 28.0851 16.2031 29.0591 15.5391 29.9445C14.875 30.7856 14.056 31.4497 13.082 31.9367C12.1081 32.4237 11.0456 32.6671 9.89453 32.6671C8.61068 32.6671 7.41536 32.3572 6.30859 31.7375C5.24609 31.0734 4.40495 30.2101 3.78516 29.1476C3.16536 28.0851 2.85547 26.8898 2.85547 25.5617C2.85547 24.4549 3.09896 23.4145 3.58594 22.4406C4.07292 21.4666 4.73698 20.6476 5.57812 19.9835C6.46354 19.3195 7.4375 18.8768 8.5 18.6554V21.5773C7.65885 21.8872 6.97266 22.4184 6.44141 23.171C5.91016 23.8794 5.64453 24.6763 5.64453 25.5617C5.64453 26.3585 5.84375 27.089 6.24219 27.7531C6.64062 28.3729 7.14974 28.882 7.76953 29.2804C8.43359 29.6346 9.14193 29.8117 9.89453 29.8117C10.6914 29.8117 11.3997 29.6346 12.0195 29.2804C12.6836 28.882 13.1927 28.3729 13.5469 27.7531C13.9453 27.089 14.1445 26.3585 14.1445 25.5617V24.1671ZM17.7305 8.56167C18.4831 8.56167 19.1693 8.76089 19.7891 9.15933C20.4531 9.55777 20.9844 10.089 21.3828 10.7531C21.7812 11.3729 21.9805 12.0591 21.9805 12.8117H24.7695C24.7695 11.5278 24.4596 10.3546 23.8398 9.29214C23.2201 8.18537 22.3568 7.32209 21.25 6.7023C20.1875 6.08251 19.0143 5.77261 17.7305 5.77261C16.4023 5.77261 15.207 6.08251 14.1445 6.7023C13.082 7.32209 12.2188 8.18537 11.5547 9.29214C10.9349 10.3546 10.625 11.5278 10.625 12.8117C10.625 13.8299 10.8242 14.7817 11.2227 15.6671C11.6211 16.5526 12.1523 17.3273 12.8164 17.9914L9.49609 23.5031C9.00911 23.5916 8.58854 23.8351 8.23438 24.2335C7.92448 24.632 7.76953 25.0747 7.76953 25.5617C7.76953 26.1815 7.96875 26.6906 8.36719 27.089C8.8099 27.4875 9.31901 27.6867 9.89453 27.6867C10.5143 27.6867 11.0234 27.4875 11.4219 27.089C11.8203 26.6906 12.0195 26.1815 12.0195 25.5617C12.0195 25.3403 11.9974 25.1411 11.9531 24.964L16.7344 16.9953C15.8047 16.7739 15.0299 16.2869 14.4102 15.5343C13.7904 14.7375 13.4805 13.8299 13.4805 12.8117C13.4805 12.0591 13.6576 11.3729 14.0117 10.7531C14.4102 10.089 14.9193 9.55777 15.5391 9.15933C16.2031 8.76089 16.9336 8.56167 17.7305 8.56167ZM24.1055 21.3117C23.2201 21.3117 22.401 21.5773 21.6484 22.1085L17.332 14.9367C16.8451 14.8481 16.4245 14.6046 16.0703 14.2062C15.7604 13.8078 15.6055 13.3429 15.6055 12.8117C15.6055 12.2362 15.8047 11.7492 16.2031 11.3507C16.6016 10.908 17.1107 10.6867 17.7305 10.6867C18.306 10.6867 18.793 10.908 19.1914 11.3507C19.6341 11.7492 19.8555 12.2362 19.8555 12.8117C19.8555 13.033 19.8112 13.2544 19.7227 13.4757L22.8438 18.589C23.2865 18.5447 23.707 18.5226 24.1055 18.5226C25.3893 18.5226 26.5625 18.8325 27.625 19.4523C28.7318 20.0721 29.5951 20.9354 30.2148 22.0421C30.8346 23.1046 31.1445 24.2778 31.1445 25.5617C31.1445 26.8898 30.8346 28.0851 30.2148 29.1476C29.5951 30.2101 28.7318 31.0734 27.625 31.7375C26.5625 32.3572 25.3893 32.6671 24.1055 32.6671C22.7773 32.6671 21.5599 32.3572 20.4531 31.7375C19.3906 31.0734 18.5495 30.2101 17.9297 29.1476H21.7148C22.4232 29.5903 23.2201 29.8117 24.1055 29.8117C24.8581 29.8117 25.5443 29.6346 26.1641 29.2804C26.8281 28.882 27.3594 28.3729 27.7578 27.7531C28.1562 27.089 28.3555 26.3585 28.3555 25.5617C28.3555 24.8091 28.1562 24.1229 27.7578 23.5031C27.3594 22.839 26.8281 22.3078 26.1641 21.9093C25.5443 21.5109 24.8581 21.3117 24.1055 21.3117Z" fill="white"/>
<path d="M45.0561 32.34C43.2427 32.34 41.8941 32.2153 41.0101 31.966V29.756C42.3701 30.1187 43.5827 30.3 44.6481 30.3C45.5321 30.3 46.2007 30.2207 46.6541 30.062C47.1074 29.9033 47.4247 29.62 47.6061 29.212C47.7874 28.7813 47.8781 28.1353 47.8781 27.274V9.934H51.1761V27.138C51.1761 28.5433 50.9721 29.62 50.5641 30.368C50.1561 31.0933 49.5214 31.6033 48.6601 31.898C47.7987 32.1927 46.5974 32.34 45.0561 32.34ZM63.665 32.34C62.2143 32.34 61.1263 32.2833 60.401 32.17C59.6756 32.0793 58.9503 31.864 58.225 31.524C57.477 31.184 56.933 30.64 56.593 29.892C56.253 29.1213 56.083 28.09 56.083 26.798V21.086C56.083 20.066 56.2076 19.1707 56.457 18.4C56.7063 17.6293 57.035 17.0287 57.443 16.598C57.783 16.2127 58.293 15.918 58.973 15.714C59.6756 15.4873 60.3896 15.34 61.115 15.272C61.931 15.2267 62.781 15.204 63.665 15.204C64.8436 15.204 65.7276 15.238 66.317 15.306C66.929 15.3513 67.575 15.4647 68.255 15.646C68.9576 15.85 69.5016 16.156 69.887 16.564C70.2723 16.972 70.601 17.5613 70.873 18.332C71.1223 19.1253 71.247 20.0433 71.247 21.086V26.798C71.247 28.7247 70.805 30.13 69.921 31.014C69.5583 31.3767 69.037 31.66 68.357 31.864C67.677 32.068 66.9743 32.204 66.249 32.272C65.3876 32.3173 64.5263 32.34 63.665 32.34ZM63.665 30.334C64.617 30.334 65.3083 30.3113 65.739 30.266C66.1696 30.2207 66.589 30.096 66.997 29.892C67.405 29.7107 67.6883 29.416 67.847 29.008C68.0283 28.5773 68.119 27.988 68.119 27.24V20.576C68.119 19.556 67.9943 18.8193 67.745 18.366C67.4956 17.89 67.065 17.584 66.453 17.448C65.8636 17.2893 64.9343 17.21 63.665 17.21C62.3956 17.21 61.455 17.2893 60.843 17.448C60.2536 17.584 59.8343 17.89 59.585 18.366C59.3356 18.8193 59.211 19.556 59.211 20.576V27.24C59.211 27.988 59.2903 28.5773 59.449 29.008C59.6303 29.416 59.925 29.7107 60.333 29.892C60.741 30.096 61.1603 30.2207 61.591 30.266C62.0216 30.3113 62.713 30.334 63.665 30.334ZM83.3632 32.34C82.1392 32.34 81.1532 32.272 80.4052 32.136C79.6799 32.0227 78.9545 31.796 78.2292 31.456C76.7559 30.7533 76.0192 29.144 76.0192 26.628V8.2H79.0792V13.13V15.068C79.0565 15.6573 79.0452 16.3147 79.0452 17.04C79.1585 16.5187 79.6345 16.0767 80.4732 15.714C81.3345 15.374 82.5812 15.204 84.2132 15.204C88.7465 15.204 91.0132 16.7567 91.0132 19.862V26.628C91.0132 27.6027 90.8659 28.4527 90.5712 29.178C90.2992 29.9033 89.9365 30.47 89.4832 30.878C89.0752 31.2633 88.5085 31.5693 87.7832 31.796C87.0805 32.0227 86.3779 32.17 85.6752 32.238C85.0405 32.306 84.2699 32.34 83.3632 32.34ZM83.4312 30.334C84.6099 30.334 85.5052 30.2547 86.1172 30.096C86.7519 29.9147 87.2052 29.5973 87.4772 29.144C87.7492 28.6907 87.8852 27.9993 87.8852 27.07V20.61C87.8852 19.6807 87.7492 18.9893 87.4772 18.536C87.2052 18.06 86.7519 17.754 86.1172 17.618C85.5052 17.4593 84.5985 17.38 83.3972 17.38C82.2865 17.38 81.4252 17.4707 80.8132 17.652C80.2012 17.8333 79.7592 18.162 79.4872 18.638C79.2152 19.0913 79.0792 19.7487 79.0792 20.61V27.07C79.0792 27.9993 79.2039 28.6907 79.4532 29.144C79.7252 29.5973 80.1672 29.9147 80.7792 30.096C81.3912 30.2547 82.2752 30.334 83.4312 30.334ZM95.9126 9.934H104.685C110.873 9.934 113.967 12.042 113.967 16.258V26.016C113.967 30.0053 110.884 32 104.719 32H95.9126V9.934ZM104.481 29.756C108.697 29.756 110.805 28.4867 110.805 25.948V16.224C110.805 15.408 110.635 14.7167 110.295 14.15C109.955 13.5833 109.479 13.164 108.867 12.892C108.255 12.6427 107.62 12.4727 106.963 12.382C106.305 12.2687 105.535 12.212 104.651 12.212H99.2106V29.756H104.481ZM125.721 32.34C120.689 32.34 118.173 30.6627 118.173 27.308V20.814C118.173 18.8193 118.739 17.3913 119.873 16.53C121.029 15.646 122.887 15.204 125.449 15.204C127.874 15.204 129.619 15.6233 130.685 16.462C131.773 17.3007 132.317 18.7513 132.317 20.814V24.452H121.267V26.934C121.267 28.0673 121.663 28.8833 122.457 29.382C123.25 29.8807 124.474 30.13 126.129 30.13C127.693 30.13 129.54 29.858 131.671 29.314V31.66C129.585 32.1133 127.602 32.34 125.721 32.34ZM129.257 22.446V19.862C129.257 18.8647 128.951 18.1847 128.339 17.822C127.749 17.4367 126.729 17.244 125.279 17.244C123.873 17.244 122.853 17.4367 122.219 17.822C121.584 18.1847 121.267 18.8647 121.267 19.862V22.446H129.257ZM142.046 32.34C140.482 32.34 139.269 32.1927 138.408 31.898C137.569 31.6033 136.957 31.082 136.572 30.334C136.209 29.586 136.028 28.5093 136.028 27.104C136.028 25.8573 136.198 24.894 136.538 24.214C136.901 23.5113 137.501 23.0127 138.34 22.718C139.201 22.4233 140.414 22.276 141.978 22.276H146.908V19.658C146.908 19.046 146.783 18.5813 146.534 18.264C146.307 17.924 145.911 17.686 145.344 17.55C144.8 17.414 143.995 17.346 142.93 17.346C141.23 17.346 139.349 17.482 137.286 17.754V15.51C139.53 15.306 141.559 15.204 143.372 15.204C145.276 15.204 146.681 15.3513 147.588 15.646C148.495 15.918 149.118 16.4053 149.458 17.108C149.798 17.8107 149.968 18.8987 149.968 20.372V32H147.01V30.436C146.761 31.7053 145.106 32.34 142.046 32.34ZM142.556 30.334C143.667 30.334 144.607 30.2547 145.378 30.096C146.398 29.892 146.908 29.416 146.908 28.668V24.18H142.182C141.207 24.18 140.505 24.2593 140.074 24.418C139.643 24.554 139.36 24.826 139.224 25.234C139.088 25.642 139.02 26.2993 139.02 27.206C139.02 28.022 139.099 28.6567 139.258 29.11C139.417 29.5407 139.7 29.858 140.108 30.062C140.516 30.2433 141.128 30.334 141.944 30.334H142.556ZM155.275 8.2H158.335V32H155.275V8.2ZM168.674 32.34C166.929 32.34 165.048 32.204 163.03 31.932V29.586C165.682 30.0167 167.586 30.232 168.742 30.232C170.193 30.232 171.236 30.096 171.87 29.824C172.505 29.5293 172.822 28.9967 172.822 28.226V26.56C172.822 25.8573 172.584 25.3587 172.108 25.064C171.632 24.7693 170.862 24.622 169.796 24.622H167.926C166.226 24.622 164.923 24.2707 164.016 23.568C163.132 22.8653 162.69 21.8793 162.69 20.61V19.08C162.69 16.496 165.138 15.204 170.034 15.204C170.397 15.204 172.063 15.2947 175.032 15.476V17.686C173.015 17.3687 171.304 17.21 169.898 17.21C168.289 17.21 167.19 17.3687 166.6 17.686C166.011 18.0033 165.716 18.536 165.716 19.284V20.678C165.716 21.7887 166.725 22.344 168.742 22.344H170.646C174.114 22.344 175.848 23.636 175.848 26.22V27.648C175.848 29.348 175.259 30.5607 174.08 31.286C172.902 31.9887 171.1 32.34 168.674 32.34Z" fill="white"/>
</svg>
