<svg width="214" height="46" viewBox="0 0 214 46" fill="none" xmlns="http://www.w3.org/2000/svg">
<path d="M16.6406 29H26.4844C26.9531 28.4271 27.5781 28.1406 28.3594 28.1406C29.0365 28.1406 29.6094 28.401 30.0781 28.9219C30.599 29.3906 30.8594 29.9635 30.8594 30.6406C30.8594 31.3698 30.599 31.9688 30.0781 32.4375C29.6094 32.9062 29.0365 33.1406 28.3594 33.1406C27.5781 33.1406 26.9531 32.8802 26.4844 32.3594H19.8438C19.5833 33.6094 19.0625 34.7552 18.2812 35.7969C17.5 36.7865 16.5365 37.5677 15.3906 38.1406C14.2448 38.7135 12.9948 39 11.6406 39C10.1302 39 8.72396 38.6354 7.42188 37.9062C6.17188 37.125 5.18229 36.1094 4.45312 34.8594C3.72396 33.6094 3.35938 32.2031 3.35938 30.6406C3.35938 29.3385 3.64583 28.1146 4.21875 26.9688C4.79167 25.8229 5.57292 24.8594 6.5625 24.0781C7.60417 23.2969 8.75 22.776 10 22.5156V25.9531C9.01042 26.3177 8.20312 26.9427 7.57812 27.8281C6.95312 28.6615 6.64062 29.599 6.64062 30.6406C6.64062 31.5781 6.875 32.4375 7.34375 33.2188C7.8125 33.9479 8.41146 34.5469 9.14062 35.0156C9.92188 35.4323 10.7552 35.6406 11.6406 35.6406C12.5781 35.6406 13.4115 35.4323 14.1406 35.0156C14.9219 34.5469 15.5208 33.9479 15.9375 33.2188C16.4062 32.4375 16.6406 31.5781 16.6406 30.6406V29ZM20.8594 10.6406C21.7448 10.6406 22.5521 10.875 23.2812 11.3438C24.0625 11.8125 24.6875 12.4375 25.1562 13.2188C25.625 13.9479 25.8594 14.7552 25.8594 15.6406H29.1406C29.1406 14.1302 28.776 12.75 28.0469 11.5C27.3177 10.1979 26.3021 9.18229 25 8.45312C23.75 7.72396 22.3698 7.35938 20.8594 7.35938C19.2969 7.35938 17.8906 7.72396 16.6406 8.45312C15.3906 9.18229 14.375 10.1979 13.5938 11.5C12.8646 12.75 12.5 14.1302 12.5 15.6406C12.5 16.8385 12.7344 17.9583 13.2031 19C13.6719 20.0417 14.2969 20.9531 15.0781 21.7344L11.1719 28.2188C10.599 28.3229 10.1042 28.6094 9.6875 29.0781C9.32292 29.5469 9.14062 30.0677 9.14062 30.6406C9.14062 31.3698 9.375 31.9688 9.84375 32.4375C10.3646 32.9062 10.9635 33.1406 11.6406 33.1406C12.3698 33.1406 12.9688 32.9062 13.4375 32.4375C13.9062 31.9688 14.1406 31.3698 14.1406 30.6406C14.1406 30.3802 14.1146 30.1458 14.0625 29.9375L19.6875 20.5625C18.5938 20.3021 17.6823 19.7292 16.9531 18.8438C16.224 17.9062 15.8594 16.8385 15.8594 15.6406C15.8594 14.7552 16.0677 13.9479 16.4844 13.2188C16.9531 12.4375 17.5521 11.8125 18.2812 11.3438C19.0625 10.875 19.9219 10.6406 20.8594 10.6406ZM28.3594 25.6406C27.3177 25.6406 26.3542 25.9531 25.4688 26.5781L20.3906 18.1406C19.8177 18.0365 19.3229 17.75 18.9062 17.2812C18.5417 16.8125 18.3594 16.2656 18.3594 15.6406C18.3594 14.9635 18.5938 14.3906 19.0625 13.9219C19.5312 13.401 20.1302 13.1406 20.8594 13.1406C21.5365 13.1406 22.1094 13.401 22.5781 13.9219C23.099 14.3906 23.3594 14.9635 23.3594 15.6406C23.3594 15.901 23.3073 16.1615 23.2031 16.4219L26.875 22.4375C27.3958 22.3854 27.8906 22.3594 28.3594 22.3594C29.8698 22.3594 31.25 22.724 32.5 23.4531C33.8021 24.1823 34.8177 25.1979 35.5469 26.5C36.276 27.75 36.6406 29.1302 36.6406 30.6406C36.6406 32.2031 36.276 33.6094 35.5469 34.8594C34.8177 36.1094 33.8021 37.125 32.5 37.9062C31.25 38.6354 29.8698 39 28.3594 39C26.7969 39 25.3646 38.6354 24.0625 37.9062C22.8125 37.125 21.8229 36.1094 21.0938 34.8594H25.5469C26.3802 35.3802 27.3177 35.6406 28.3594 35.6406C29.2448 35.6406 30.0521 35.4323 30.7812 35.0156C31.5625 34.5469 32.1875 33.9479 32.6562 33.2188C33.125 32.4375 33.3594 31.5781 33.3594 30.6406C33.3594 29.7552 33.125 28.9479 32.6562 28.2188C32.1875 27.4375 31.5625 26.8125 30.7812 26.3438C30.0521 25.875 29.2448 25.6406 28.3594 25.6406Z" fill="white"/>
<path d="M57.56 37.4C55.4267 37.4 53.84 37.2533 52.8 36.96V34.36C54.4 34.7867 55.8267 35 57.08 35C58.12 35 58.9067 34.9067 59.44 34.72C59.9733 34.5333 60.3467 34.2 60.56 33.72C60.7733 33.2133 60.88 32.4533 60.88 31.44V11.04H64.76V31.28C64.76 32.9333 64.52 34.2 64.04 35.08C63.56 35.9333 62.8133 36.5333 61.8 36.88C60.7867 37.2267 59.3733 37.4 57.56 37.4ZM79.4528 37.4C77.7461 37.4 76.4661 37.3333 75.6128 37.2C74.7595 37.0933 73.9061 36.84 73.0528 36.44C72.1728 36.04 71.5328 35.4 71.1328 34.52C70.7328 33.6133 70.5328 32.4 70.5328 30.88V24.16C70.5328 22.96 70.6795 21.9067 70.9728 21C71.2661 20.0933 71.6528 19.3867 72.1328 18.88C72.5328 18.4267 73.1328 18.08 73.9328 17.84C74.7595 17.5733 75.5995 17.4 76.4528 17.32C77.4128 17.2667 78.4128 17.24 79.4528 17.24C80.8395 17.24 81.8795 17.28 82.5728 17.36C83.2928 17.4133 84.0528 17.5467 84.8528 17.76C85.6795 18 86.3195 18.36 86.7728 18.84C87.2261 19.32 87.6128 20.0133 87.9328 20.92C88.2261 21.8533 88.3728 22.9333 88.3728 24.16V30.88C88.3728 33.1467 87.8528 34.8 86.8128 35.84C86.3861 36.2667 85.7728 36.6 84.9728 36.84C84.1728 37.08 83.3461 37.24 82.4928 37.32C81.4795 37.3733 80.4661 37.4 79.4528 37.4ZM79.4528 35.04C80.5728 35.04 81.3861 35.0133 81.8928 34.96C82.3995 34.9067 82.8928 34.76 83.3728 34.52C83.8528 34.3067 84.1861 33.96 84.3728 33.48C84.5861 32.9733 84.6928 32.28 84.6928 31.4V23.56C84.6928 22.36 84.5461 21.4933 84.2528 20.96C83.9595 20.4 83.4528 20.04 82.7328 19.88C82.0395 19.6933 80.9461 19.6 79.4528 19.6C77.9595 19.6 76.8528 19.6933 76.1328 19.88C75.4395 20.04 74.9461 20.4 74.6528 20.96C74.3595 21.4933 74.2128 22.36 74.2128 23.56V31.4C74.2128 32.28 74.3061 32.9733 74.4928 33.48C74.7061 33.96 75.0528 34.3067 75.5328 34.52C76.0128 34.76 76.5061 34.9067 77.0128 34.96C77.5195 35.0133 78.3328 35.04 79.4528 35.04ZM102.627 37.4C101.187 37.4 100.027 37.32 99.1472 37.16C98.2939 37.0267 97.4405 36.76 96.5872 36.36C94.8539 35.5333 93.9872 33.64 93.9872 30.68V9H97.5872V14.8V17.08C97.5605 17.7733 97.5472 18.5467 97.5472 19.4C97.6805 18.7867 98.2405 18.2667 99.2272 17.84C100.241 17.44 101.707 17.24 103.627 17.24C108.961 17.24 111.627 19.0667 111.627 22.72V30.68C111.627 31.8267 111.454 32.8267 111.107 33.68C110.787 34.5333 110.361 35.2 109.827 35.68C109.347 36.1333 108.681 36.4933 107.827 36.76C107.001 37.0267 106.174 37.2 105.347 37.28C104.601 37.36 103.694 37.4 102.627 37.4ZM102.707 35.04C104.094 35.04 105.147 34.9467 105.867 34.76C106.614 34.5467 107.147 34.1733 107.467 33.64C107.787 33.1067 107.947 32.2933 107.947 31.2V23.6C107.947 22.5067 107.787 21.6933 107.467 21.16C107.147 20.6 106.614 20.24 105.867 20.08C105.147 19.8933 104.081 19.8 102.667 19.8C101.361 19.8 100.347 19.9067 99.6272 20.12C98.9072 20.3333 98.3872 20.72 98.0672 21.28C97.7472 21.8133 97.5872 22.5867 97.5872 23.6V31.2C97.5872 32.2933 97.7339 33.1067 98.0272 33.64C98.3472 34.1733 98.8672 34.5467 99.5872 34.76C100.307 34.9467 101.347 35.04 102.707 35.04ZM117.391 11.04H127.711C134.991 11.04 138.631 13.52 138.631 18.48V29.96C138.631 34.6533 135.005 37 127.751 37H117.391V11.04ZM127.471 34.36C132.431 34.36 134.911 32.8667 134.911 29.88V18.44C134.911 17.48 134.711 16.6667 134.311 16C133.911 15.3333 133.351 14.84 132.631 14.52C131.911 14.2267 131.165 14.0267 130.391 13.92C129.618 13.7867 128.711 13.72 127.671 13.72H121.271V34.36H127.471ZM152.46 37.4C146.54 37.4 143.58 35.4267 143.58 31.48V23.84C143.58 21.4933 144.246 19.8133 145.58 18.8C146.94 17.76 149.126 17.24 152.14 17.24C154.993 17.24 157.046 17.7333 158.3 18.72C159.58 19.7067 160.22 21.4133 160.22 23.84V28.12H147.22V31.04C147.22 32.3733 147.686 33.3333 148.62 33.92C149.553 34.5067 150.993 34.8 152.94 34.8C154.78 34.8 156.953 34.48 159.46 33.84V36.6C157.006 37.1333 154.673 37.4 152.46 37.4ZM156.62 25.76V22.72C156.62 21.5467 156.26 20.7467 155.54 20.32C154.846 19.8667 153.646 19.64 151.94 19.64C150.286 19.64 149.086 19.8667 148.34 20.32C147.593 20.7467 147.22 21.5467 147.22 22.72V25.76H156.62ZM171.666 37.4C169.826 37.4 168.399 37.2267 167.386 36.88C166.399 36.5333 165.679 35.92 165.226 35.04C164.799 34.16 164.586 32.8933 164.586 31.24C164.586 29.7733 164.786 28.64 165.186 27.84C165.613 27.0133 166.319 26.4267 167.306 26.08C168.319 25.7333 169.746 25.56 171.586 25.56H177.386V22.48C177.386 21.76 177.239 21.2133 176.946 20.84C176.679 20.44 176.213 20.16 175.546 20C174.906 19.84 173.959 19.76 172.706 19.76C170.706 19.76 168.493 19.92 166.066 20.24V17.6C168.706 17.36 171.093 17.24 173.226 17.24C175.466 17.24 177.119 17.4133 178.186 17.76C179.253 18.08 179.986 18.6533 180.386 19.48C180.786 20.3067 180.986 21.5867 180.986 23.32V37H177.506V35.16C177.213 36.6533 175.266 37.4 171.666 37.4ZM172.266 35.04C173.573 35.04 174.679 34.9467 175.586 34.76C176.786 34.52 177.386 33.96 177.386 33.08V27.8H171.826C170.679 27.8 169.853 27.8933 169.346 28.08C168.839 28.24 168.506 28.56 168.346 29.04C168.186 29.52 168.106 30.2933 168.106 31.36C168.106 32.32 168.199 33.0667 168.386 33.6C168.573 34.1067 168.906 34.48 169.386 34.72C169.866 34.9333 170.586 35.04 171.546 35.04H172.266ZM187.229 9H190.829V37H187.229V9ZM202.993 37.4C200.94 37.4 198.726 37.24 196.353 36.92V34.16C199.473 34.6667 201.713 34.92 203.073 34.92C204.78 34.92 206.006 34.76 206.753 34.44C207.5 34.0933 207.873 33.4667 207.873 32.56V30.6C207.873 29.7733 207.593 29.1867 207.033 28.84C206.473 28.4933 205.566 28.32 204.313 28.32H202.113C200.113 28.32 198.58 27.9067 197.513 27.08C196.473 26.2533 195.953 25.0933 195.953 23.6V21.8C195.953 18.76 198.833 17.24 204.593 17.24C205.02 17.24 206.98 17.3467 210.473 17.56V20.16C208.1 19.7867 206.086 19.6 204.433 19.6C202.54 19.6 201.246 19.7867 200.553 20.16C199.86 20.5333 199.513 21.16 199.513 22.04V23.68C199.513 24.9867 200.7 25.64 203.073 25.64H205.313C209.393 25.64 211.433 27.16 211.433 30.2V31.88C211.433 33.88 210.74 35.3067 209.353 36.16C207.966 36.9867 205.846 37.4 202.993 37.4Z" fill="white"/>
</svg>
